<?xml version="1.0" encoding="UTF-8" standalone="no"?>
<!-- Created with Inkscape (http://www.inkscape.org/) -->

<svg
   width="1366"
   height="768"
   viewBox="0 0 1366 768"
   version="1.1"
   id="svg5"
   inkscape:version="1.2.1 (9c6d41e410, 2022-07-14)"
   sodipodi:docname="desenho.svg"
   xmlns:inkscape="http://www.inkscape.org/namespaces/inkscape"
   xmlns:sodipodi="http://sodipodi.sourceforge.net/DTD/sodipodi-0.dtd"
   xmlns="http://www.w3.org/2000/svg"
   xmlns:svg="http://www.w3.org/2000/svg">
  <sodipodi:namedview
     id="namedview7"
     pagecolor="#ffffff"
     bordercolor="#000000"
     borderopacity="0.25"
     inkscape:showpageshadow="2"
     inkscape:pageopacity="0.0"
     inkscape:pagecheckerboard="0"
     inkscape:deskcolor="#d1d1d1"
     inkscape:document-units="px"
     showgrid="false"
     showguides="true"
     inkscape:zoom="0.90556369"
     inkscape:cx="467.11237"
     inkscape:cy="384.29103"
     inkscape:window-width="1920"
     inkscape:window-height="1017"
     inkscape:window-x="-8"
     inkscape:window-y="-8"
     inkscape:window-maximized="1"
     inkscape:current-layer="layer1" />
  <defs
     id="defs2">
    <inkscape:path-effect
       effect="bspline"
       id="path-effect22642"
       is_visible="true"
       lpeversion="1"
       weight="33.333333"
       steps="2"
       helper_size="0"
       apply_no_weight="true"
       apply_with_weight="true"
       only_selected="false" />
    <inkscape:path-effect
       effect="bspline"
       id="path-effect22638"
       is_visible="true"
       lpeversion="1"
       weight="33.333333"
       steps="2"
       helper_size="0"
       apply_no_weight="true"
       apply_with_weight="true"
       only_selected="false" />
    <inkscape:path-effect
       effect="bspline"
       id="path-effect21937"
       is_visible="true"
       lpeversion="1"
       weight="33.333333"
       steps="2"
       helper_size="0"
       apply_no_weight="true"
       apply_with_weight="true"
       only_selected="false" />
    <inkscape:path-effect
       effect="bspline"
       id="path-effect21933"
       is_visible="true"
       lpeversion="1"
       weight="33.333333"
       steps="2"
       helper_size="0"
       apply_no_weight="true"
       apply_with_weight="true"
       only_selected="false" />
    <inkscape:path-effect
       effect="bspline"
       id="path-effect21929"
       is_visible="true"
       lpeversion="1"
       weight="33.333333"
       steps="2"
       helper_size="0"
       apply_no_weight="true"
       apply_with_weight="true"
       only_selected="false" />
    <inkscape:path-effect
       effect="bspline"
       id="path-effect21925"
       is_visible="true"
       lpeversion="1"
       weight="33.333333"
       steps="2"
       helper_size="0"
       apply_no_weight="true"
       apply_with_weight="true"
       only_selected="false" />
    <inkscape:path-effect
       effect="bspline"
       id="path-effect21921"
       is_visible="true"
       lpeversion="1"
       weight="33.333333"
       steps="2"
       helper_size="0"
       apply_no_weight="true"
       apply_with_weight="true"
       only_selected="false" />
    <inkscape:path-effect
       effect="bspline"
       id="path-effect21917"
       is_visible="true"
       lpeversion="1"
       weight="33.333333"
       steps="2"
       helper_size="0"
       apply_no_weight="true"
       apply_with_weight="true"
       only_selected="false" />
    <inkscape:path-effect
       effect="bspline"
       id="path-effect21913"
       is_visible="true"
       lpeversion="1"
       weight="33.333333"
       steps="2"
       helper_size="0"
       apply_no_weight="true"
       apply_with_weight="true"
       only_selected="false" />
    <inkscape:path-effect
       effect="bspline"
       id="path-effect21909"
       is_visible="true"
       lpeversion="1"
       weight="33.333333"
       steps="2"
       helper_size="0"
       apply_no_weight="true"
       apply_with_weight="true"
       only_selected="false" />
    <inkscape:path-effect
       effect="bspline"
       id="path-effect21905"
       is_visible="true"
       lpeversion="1"
       weight="33.333333"
       steps="2"
       helper_size="0"
       apply_no_weight="true"
       apply_with_weight="true"
       only_selected="false" />
    <inkscape:path-effect
       effect="bspline"
       id="path-effect21901"
       is_visible="true"
       lpeversion="1"
       weight="33.333333"
       steps="2"
       helper_size="0"
       apply_no_weight="true"
       apply_with_weight="true"
       only_selected="false" />
    <inkscape:path-effect
       effect="bspline"
       id="path-effect21897"
       is_visible="true"
       lpeversion="1"
       weight="33.333333"
       steps="2"
       helper_size="0"
       apply_no_weight="true"
       apply_with_weight="true"
       only_selected="false" />
    <inkscape:path-effect
       effect="bspline"
       id="path-effect21893"
       is_visible="true"
       lpeversion="1"
       weight="33.333333"
       steps="2"
       helper_size="0"
       apply_no_weight="true"
       apply_with_weight="true"
       only_selected="false" />
    <inkscape:path-effect
       effect="bspline"
       id="path-effect21889"
       is_visible="true"
       lpeversion="1"
       weight="33.333333"
       steps="2"
       helper_size="0"
       apply_no_weight="true"
       apply_with_weight="true"
       only_selected="false" />
    <inkscape:path-effect
       effect="bspline"
       id="path-effect21885"
       is_visible="true"
       lpeversion="1"
       weight="33.333333"
       steps="2"
       helper_size="0"
       apply_no_weight="true"
       apply_with_weight="true"
       only_selected="false" />
    <inkscape:path-effect
       effect="bspline"
       id="path-effect21881"
       is_visible="true"
       lpeversion="1"
       weight="33.333333"
       steps="2"
       helper_size="0"
       apply_no_weight="true"
       apply_with_weight="true"
       only_selected="false" />
    <inkscape:path-effect
       effect="bspline"
       id="path-effect21877"
       is_visible="true"
       lpeversion="1"
       weight="33.333333"
       steps="2"
       helper_size="0"
       apply_no_weight="true"
       apply_with_weight="true"
       only_selected="false" />
    <inkscape:path-effect
       effect="bspline"
       id="path-effect21810"
       is_visible="true"
       lpeversion="1"
       weight="33.333333"
       steps="2"
       helper_size="0"
       apply_no_weight="true"
       apply_with_weight="true"
       only_selected="false" />
  </defs>
  <g
     inkscape:label="Camada 1"
     inkscape:groupmode="layer"
     id="layer1">
    <path
       id="path163"
       style="fill:#000080;fill-opacity:0.412879;fill-rule:evenodd;stroke:#000000;stroke-width:0"
       d="m 1060.1132,400.85529 c 0,94.53133 -159.19843,171.1641 -355.57963,171.1641 -54.63822,0 -129.58812,-31.33064 -157.06903,-37.51271 -85.8055,-22.60051 -263.66338,-134.75567 -263.66338,-134.75567 84.29703,-61.06687 262.62524,-123.1773 283.39341,-131.2031 29.30179,-9.57626 44.0586,-15.66676 93.16762,-15.66676 196.3812,0 399.75101,53.44281 399.75101,147.97414 z"
       sodipodi:nodetypes="sscccss" />
    <ellipse
       style="fill:none;fill-opacity:0.412879;fill-rule:evenodd;stroke:#000000;stroke-width:0"
       id="path586"
       cx="586.37512"
       cy="556.00726"
       rx="170.05983"
       ry="150.73485" />
    <ellipse
       style="fill:none;fill-opacity:0.412879;fill-rule:evenodd;stroke:#000000;stroke-width:0"
       id="path1160"
       cx="527.2959"
       cy="580.30151"
       rx="4.9692807"
       ry="2.7607114" />
    <path
       style="fill:#00ffbb;fill-opacity:0.41176501;fill-rule:evenodd;stroke:#000000;stroke-width:0"
       d="m 680.79143,569.73759 c -24.74587,-3.36605 -54.59217,-11.05394 -100.39348,-25.85961 -11.48674,-3.71319 -26.14628,-8.18181 -32.57672,-9.93027 -39.90176,-10.8494 -103.90165,-41.22423 -185.06375,-87.83265 -23.87954,-13.71315 -70.94823,-41.73636 -75.74531,-45.09636 -2.02761,-1.42019 -1.25319,-2.1247 11.38632,-10.35857 44.68652,-29.11048 112.74,-61.51648 202.9467,-96.64003 62.46992,-24.32375 89.66298,-33.48308 111.53274,-37.56713 11.65993,-2.17743 16.26917,-2.36798 56.31851,-2.32829 45.10832,0.0447 69.43544,1.35891 110.9806,5.99545 140.77363,15.7107 243.80136,57.28316 271.06806,109.37796 5.9524,11.37249 7.8351,19.17881 7.8291,32.46149 -0.036,79.29143 -116.56689,148.34672 -279.4493,165.59996 -37.20087,3.94048 -79.09015,4.86362 -98.83347,2.17805 z"
       id="path1842" />
    <path
       id="path2241"
       style="fill:#00aaaa;fill-rule:evenodd;stroke:#000000;stroke-width:0"
       d="m 352.26678,398.0946 c -2.27942,16.48339 7.58829,48.83627 5.30888,46.91061 l -106.70264,45.40992 -120.45018,24.96523 c -71.630443,-156.23963 -4.54735,-282.13733 -4.54735,-282.13733 19.66948,-20.51333 123.67754,16.29671 123.67754,16.29671 l 60.32913,40.58552 c 15.57013,20.22664 68.76356,54.61096 68.76356,54.61096 z"
       sodipodi:nodetypes="ccccccccc" />
    <path
       style="fill:#87cdde;fill-opacity:1;fill-rule:evenodd;stroke:#000000;stroke-width:0"
       d="m 840.36055,268.34115 c -2.21062,4.78967 -4.41919,9.5749 -5.70709,13.25783 -1.28791,3.68293 -1.65601,6.2596 -2.57662,9.93951 -0.92061,3.6799 -2.39299,8.46514 -3.31225,11.03864 -0.91927,2.57351 -1.28736,2.9416 -1.6559,4.97058 -0.36854,2.02897 -0.73663,5.70992 -1.47338,9.20536 -0.73674,3.49545 -1.84103,6.80831 -2.39217,14.35625 -0.55114,7.54794 -0.55114,19.32698 -0.55114,37.54768 0,18.22069 0,42.88305 0,62.94422 0,20.06116 0,35.52115 0.18426,47.66848 0.18427,12.14733 0.55236,20.98161 1.65917,27.4241 1.10681,6.44249 2.94728,10.49153 4.23787,12.88311 1.29059,2.39159 2.02678,3.12778 2.38987,4.23207 0.3631,1.10428 0.3631,2.57666 0.91877,4.23397 0.55567,1.65731 1.65996,3.49778 2.20858,4.78523 0.54861,1.28745 0.54861,2.02364 0.92271,2.57378 0.37409,0.55015 1.11028,0.91824 2.02677,2.57769 0.9165,1.65945 2.02079,4.60422 3.12701,6.81236 1.10622,2.20814 2.21051,3.68052 2.94344,5.52107 0.73294,1.84055 1.10104,4.04912 1.84048,5.88952 0.73944,1.8404 1.84373,3.31278 2.93961,4.77396"
       id="path21883"
       inkscape:path-effect="#path-effect21885"
       inkscape:original-d="m 848.09054,560.97656 c -1.09428,-1.46238 -2.19857,-2.93476 -3.31285,-4.41714 -0.3581,-2.19857 -0.72619,-4.40714 -1.10429,-6.62571 -1.09428,-1.46238 -2.19857,-2.93476 -3.31285,-4.41714 -1.09428,-2.93476 -2.19857,-5.87952 -3.31285,-8.83427 -0.72619,-0.3581 -1.46238,-0.72619 -2.20857,-1.10429 0.01,-0.72619 0.01,-1.46238 0,-2.20857 -1.09429,-1.83047 -2.19857,-3.67095 -3.31286,-5.52142 0.01,-1.46238 0.01,-2.93476 0,-4.41714 -0.72619,-0.72619 -1.46238,-1.46238 -2.20857,-2.20857 -1.83047,-4.03904 -3.67094,-8.08808 -5.52142,-12.14713 -0.35809,-8.82427 -0.72619,-17.65855 -1.10428,-26.50283 0.01,-15.44998 0.01,-30.90997 0,-46.37995 0.01,-24.65235 0.01,-49.31471 0,-73.98706 0.01,-11.76904 0.01,-23.54808 0,-35.33711 1.11428,-3.30285 2.21857,-6.61571 3.31285,-9.93856 0.3781,-3.67095 0.74619,-7.3519 1.10429,-11.04285 0.37809,-0.35809 0.74618,-0.72619 1.10428,-1.10428 1.48238,-4.77523 2.95476,-9.56047 4.41714,-14.3557 0.37809,-2.56666 0.74619,-5.14333 1.10428,-7.72999 2.21857,-4.77524 4.42714,-9.56047 6.62571,-14.3557 3.32285,1.85047 6.63571,3.69095 9.93856,5.52142 -3.30285,-0.72619 -6.61571,-1.46238 -9.93856,-2.20857" />
    <path
       style="fill:#87cdde;fill-opacity:1;fill-rule:evenodd;stroke:#000000;stroke-width:0"
       d="m 111.53274,271.654 c 3.32393,2.58528 6.63679,5.16194 8.66077,6.44597 2.02398,1.28402 2.76017,1.28402 3.68041,1.84117 0.92024,0.55714 2.02452,1.66142 6.62674,3.86746 4.60222,2.20604 12.70031,5.5189 18.95765,8.64908 6.25735,3.13018 10.67449,6.07494 14.72377,8.46671 4.04927,2.39177 7.73022,4.23225 10.12183,5.14948 2.39162,0.91724 3.4959,0.91724 4.41614,1.29033 0.92024,0.3731 1.65643,1.10929 4.2341,2.57967 2.57766,1.47038 6.99479,3.67894 9.57045,5.15332 2.57567,1.47438 3.31186,2.21057 4.96923,2.94346 1.65738,0.73289 4.23404,1.46908 8.65121,3.49506 4.41717,2.02599 10.67478,5.33884 14.1707,6.99211 3.49593,1.65326 4.23212,1.65326 6.0736,2.39245 1.84147,0.73919 4.78623,2.21157 6.80975,2.94476 2.02352,0.73319 3.12781,0.73319 5.70543,1.84072 2.57761,1.10754 6.62666,3.31611 10.30714,4.6018 3.68048,1.28569 6.99334,1.65379 9.57055,2.20773 2.57721,0.55395 4.41768,1.29014 9.57067,2.393 5.15299,1.10286 13.61917,2.57524 22.07396,4.04564"
       id="path21895"
       inkscape:path-effect="#path-effect21897"
       inkscape:original-d="m 111.53274,271.654 c 3.32285,2.58667 6.63571,5.16333 9.93856,7.72999 0.74619,0.01 1.48238,0.01 2.20857,0 1.11429,1.11429 2.21857,2.21857 3.31285,3.31286 8.10809,3.32285 16.20618,6.6357 24.29426,9.93856 4.42714,2.95476 8.84428,5.89952 13.25142,8.83427 3.69095,1.85048 7.3719,3.69095 11.04284,5.52143 1.11429,0.01 2.21857,0.01 3.31286,0 0.74619,0.74619 1.48238,1.48238 2.20857,2.20857 4.42714,2.21857 8.84427,4.42713 13.25141,6.6257 0.74619,0.74619 1.48238,1.48238 2.20857,2.20857 2.58667,0.74619 5.16333,1.48238 7.72999,2.20857 6.26762,3.32286 12.52523,6.63571 18.77284,9.93856 0.74619,0.01 1.48238,0.01 2.20857,0 2.95476,1.48238 5.89952,2.95476 8.83428,4.41714 1.11428,0.01 2.21857,0.01 3.31285,0 4.05904,2.21857 8.10809,4.42714 12.14713,6.62571 3.32285,0.37809 6.63571,0.74619 9.93856,1.10428 1.85048,0.74619 3.69095,1.48238 5.52142,2.20857 8.47619,1.48238 16.94237,2.95476 25.39855,4.41714" />
    <path
       style="fill:#87cdde;fill-opacity:1;fill-rule:evenodd;stroke:#000000;stroke-width:0"
       d="m 99.38561,323.55538 c 4.79718,1.47605 9.58241,2.94843 14.55153,5.34295 4.96913,2.39451 10.12245,5.70737 13.80358,7.73015 3.68114,2.02279 5.88971,2.75897 8.46622,4.04896 2.57651,1.28998 5.52126,3.13046 8.09776,4.23204 2.5765,1.10158 4.78507,1.46967 6.62587,2.02386 1.84079,0.5542 3.31317,1.29039 5.15332,1.84048 1.84015,0.55009 4.04872,0.91819 6.62574,1.65569 2.57701,0.7375 5.52177,1.84179 8.64955,2.39167 3.12778,0.54988 6.44063,0.54988 9.75448,1.10402 3.31386,0.55414 6.62672,1.65843 10.30708,2.39311 3.68035,0.73468 7.7294,1.10278 10.1226,1.47338 2.39321,0.3706 3.1294,0.7387 4.23269,0.91974 1.10328,0.18105 2.57566,0.18105 3.86499,0.3671 1.28933,0.18605 2.39362,0.55414 4.41714,0.73619 2.02352,0.18205 4.96828,0.18205 7.72993,0.55184 2.76166,0.3698 5.33832,1.10598 10.30728,2.02537 4.96897,0.91938 12.33086,2.02366 16.74737,2.57496 4.41652,0.5513 5.8889,0.5513 6.99418,0.73835 1.10529,0.18704 1.84148,0.55514 3.12958,0.92139 1.2881,0.36624 3.12858,0.73434 6.07256,0.91724 2.94399,0.18289 6.99304,0.18289 9.93883,0.5534 2.94579,0.37051 4.78627,1.1067 7.7304,1.65692 2.94414,0.55022 6.99318,0.91831 11.0314,1.28542"
       id="path21899"
       inkscape:path-effect="#path-effect21901"
       inkscape:original-d="m 99.38561,323.55538 c 4.79523,1.48238 9.58047,2.95475 14.3557,4.41713 5.16333,3.32286 10.31666,6.63571 15.45998,9.93857 2.21857,0.74618 4.42714,1.48237 6.62571,2.20856 2.95476,1.85048 5.89952,3.69095 8.83428,5.52143 2.21857,0.37809 4.42714,0.74619 6.6257,1.10428 1.48238,0.74619 2.95476,1.48238 4.41714,2.20857 2.21857,0.3781 4.42714,0.74619 6.62571,1.10429 2.95476,1.11428 5.89952,2.21856 8.83428,3.31285 3.32285,0.01 6.6357,0.01 9.93856,0 3.32285,1.11428 6.63571,2.21857 9.93856,3.31285 4.05904,0.3781 8.10809,0.74619 12.14713,1.10429 0.74619,0.37809 1.48238,0.74619 2.20857,1.10428 1.48238,0.01 2.95476,0.01 4.41714,0 1.11428,0.3781 2.21857,0.74619 3.31285,1.10429 2.95476,0.01 5.89952,0.01 8.83428,0 2.58666,0.74619 5.16332,1.48238 7.72999,2.20857 7.3719,1.11428 14.73379,2.21856 22.08569,3.31285 1.48238,0.01 2.95476,0.01 4.41714,0 0.74619,0.37809 1.48238,0.74619 2.20857,1.10428 1.85047,0.3781 3.69095,0.74619 5.52142,1.10429 4.05904,0.01 8.10809,0.01 12.14713,0 1.85047,0.74619 3.69095,1.48238 5.52142,2.20857 4.05905,0.37809 8.10809,0.74619 12.14713,1.10428" />
    <path
       style="fill:#87cdde;fill-opacity:1;fill-rule:evenodd;stroke:#000000;stroke-width:0"
       d="m 97.177041,379.87389 c 6.269319,1.47513 12.526929,2.94751 17.311309,3.68233 4.78438,0.73481 8.09724,0.73481 13.25136,1.47222 5.15412,0.73741 12.14792,2.20978 19.32498,2.94475 7.17705,0.73497 14.53895,0.73497 22.63703,0.73497 8.09809,0 16.93237,0 23.92617,0 6.9938,0 12.14713,0 15.27694,0.18605 3.12981,0.18605 4.23409,0.55414 9.38642,0.73619 5.15233,0.18205 14.3547,0.18205 28.34231,0.18205 13.9876,0 32.76043,0 51.52327,0"
       id="path21903"
       inkscape:path-effect="#path-effect21905"
       inkscape:original-d="m 97.177041,379.87389 c 6.267609,1.48238 12.525229,2.95476 18.772839,4.41714 3.32285,0.01 6.63571,0.01 9.93856,0 7.0038,1.48238 13.9976,2.95476 20.98141,4.41713 7.37189,0.01 14.73379,0.01 22.08569,0 8.84427,0.01 17.67855,0.01 26.50283,0 5.16332,0.01 10.31665,0.01 15.45998,0 1.11429,0.3781 2.21857,0.74619 3.31285,1.10429 9.21238,0.01 18.41475,0.01 27.60712,0 18.78284,0.01 37.55567,0.01 56.31851,0" />
    <path
       style="fill:#87cdde;fill-opacity:1;fill-rule:evenodd;stroke:#000000;stroke-width:0"
       d="m 98.281326,414.10671 c 7.004304,0.36865 13.998104,0.73674 20.072364,1.6584 6.07426,0.92166 11.22759,2.39404 18.22133,4.23428 6.99374,1.84025 15.82801,4.04882 21.16451,5.15164 5.33649,1.10281 7.17696,1.10281 8.65034,1.28886 1.47338,0.18604 2.57767,0.55414 8.46619,0.73618 5.88851,0.18205 16.56326,0.18205 30.91896,0.18205 14.3557,0 32.39235,0 47.29968,-0.55256 14.90733,-0.55257 26.68637,-1.65685 33.30959,-2.57766 6.62321,-0.92082 8.09559,-1.65701 9.75502,-2.0241 1.65943,-0.3671 3.4999,-0.3671 4.96843,-0.73597 1.46854,-0.36886 2.57282,-1.10505 3.31285,-1.47237 0.74004,-0.36733 1.10814,-0.36733 0.55688,-0.54991 -0.55126,-0.18257 -2.02365,-0.55067 -3.50779,-0.9217"
       id="path21907"
       inkscape:path-effect="#path-effect21909"
       inkscape:original-d="m 98.281326,414.10671 c 7.003804,0.37809 13.997604,0.74619 20.981404,1.10428 5.16333,1.48238 10.31666,2.95476 15.45999,4.41714 8.84427,2.21857 17.67855,4.42714 26.50283,6.62571 1.85047,0.01 3.69094,0.01 5.52142,0 1.11428,0.37809 2.21857,0.74619 3.31285,1.10428 10.68475,0.01 21.3595,0.01 32.02425,0 18.04665,0.01 36.0833,0.01 54.10995,0 11.78903,-1.09428 23.56807,-2.19856 35.3371,-3.31285 1.48238,-0.72619 2.95476,-1.46238 4.41714,-2.20857 1.85048,0.01 3.69095,0.01 5.52142,0 1.11429,-0.72619 2.21857,-1.46238 3.31286,-2.20857 0.37809,0.01 0.74619,0.01 1.10428,0 -1.46238,-0.35809 -2.93476,-0.72619 -4.41714,-1.10428" />
    <path
       style="fill:#87cdde;fill-opacity:1;fill-rule:evenodd;stroke:#000000;stroke-width:0"
       d="m 108.21989,458.27809 c 11.78903,0 23.56807,0 44.73352,0 21.16546,0 51.71733,0 72.33046,-0.18421 20.61313,-0.18422 31.28788,-0.55231 37.36163,-0.73619 6.07374,-0.18388 7.54612,-0.18388 10.67358,-0.73687 3.12745,-0.55298 7.91269,-1.65727 12.14713,-2.20857 4.23444,-0.5513 7.91539,-0.5513 9.93491,-0.73534 2.01952,-0.18405 2.38762,-0.55215 2.20857,-0.7362 -0.17905,-0.18404 -0.91524,-0.18404 -1.66143,-0.18404"
       id="path21911"
       inkscape:path-effect="#path-effect21913"
       inkscape:original-d="m 108.21989,458.27809 c 11.78903,0.01 23.56807,0.01 35.3371,0 30.56188,0.01 61.11375,0.01 91.65562,0 10.68475,-0.35809 21.3595,-0.72619 32.02425,-1.10428 1.48238,0.01 2.95476,0.01 4.41714,0 4.79523,-1.09429 9.58047,-2.19857 14.3557,-3.31286 3.69095,0.01 7.3719,0.01 11.04285,0 0.37809,-0.35809 0.74619,-0.72619 1.10428,-1.10428 -0.72619,0.01 -1.46238,0.01 -2.20857,0" />
    <path
       style="fill:#87cdde;fill-opacity:1;fill-rule:evenodd;stroke:#000000;stroke-width:0"
       d="m 118.15845,489.19806 c 25.40777,-1.84114 50.80632,-3.68162 65.71307,-5.15454 14.90676,-1.47293 19.3239,-2.57722 22.08608,-3.12848 2.76218,-0.55126 3.86647,-0.55126 4.41361,-0.7303 0.54714,-0.17905 0.54714,-0.54715 0.54714,-0.92524"
       id="path21915"
       inkscape:path-effect="#path-effect21917"
       inkscape:original-d="m 118.15845,489.19806 c 25.40854,-1.83047 50.80709,-3.67095 76.19563,-5.52142 4.42714,-1.09429 8.84428,-2.19857 13.25142,-3.31286 1.11428,0.01 2.21857,0.01 3.31285,0 0.01,-0.35809 0.01,-0.72619 0,-1.10428" />
    <path
       style="fill:#87cdde;fill-opacity:1;fill-rule:evenodd;stroke:#000000;stroke-width:0"
       d="m 130.30558,227.48262 c 5.53142,5.53142 11.05284,11.05284 15.8391,14.73153 4.78626,3.67869 8.83531,5.51916 11.41171,6.8086 2.57641,1.28944 3.6807,2.02563 5.15307,2.57508 1.47238,0.54945 3.31286,0.91755 4.96912,1.65678 1.65625,0.73924 3.12863,1.84352 5.1535,2.76126 2.02487,0.91774 4.60153,1.65393 8.46661,3.12719 3.86509,1.47327 9.01842,3.68184 15.09199,6.25845 6.07356,2.57662 13.06736,5.52138 18.03661,7.73041 4.96924,2.20903 7.914,3.68141 11.22682,4.96853 3.31282,1.28712 6.99377,2.3914 9.56947,2.94176 2.5757,0.55035 4.04807,0.55035 7.36196,1.65722 3.31389,1.10687 8.46722,3.31544 12.88429,4.97107 4.41707,1.65563 8.09801,2.75991 10.49043,3.68221 2.39243,0.92229 3.49671,1.65848 6.99387,3.3137 3.49717,1.65522 9.38669,4.23188 15.27621,6.80855 5.88952,2.57667 11.77903,5.15333 17.65648,7.72472"
       id="path21919"
       inkscape:path-effect="#path-effect21921"
       inkscape:original-d="m 130.30558,227.48262 c 5.53142,5.53142 11.05284,11.05284 16.56427,16.56427 4.05904,1.85047 8.10808,3.69095 12.14713,5.52142 1.11428,0.74619 2.21857,1.48238 3.31285,2.20857 1.85047,0.37809 3.69095,0.74619 5.52142,1.10428 1.48238,1.11429 2.95476,2.21857 4.41714,3.31286 2.58667,0.74619 5.16333,1.48238 7.72999,2.20857 5.16333,2.21857 10.31666,4.42714 15.45999,6.6257 7.0038,2.95476 13.9976,5.89952 20.9814,8.83428 2.95476,1.48238 5.89952,2.95476 8.83428,4.41714 3.69095,1.11428 7.3719,2.21857 11.04285,3.31285 1.48238,0.01 2.95475,0.01 4.41713,0 5.16333,2.21857 10.31666,4.42714 15.45999,6.62571 3.69095,1.11428 7.37189,2.21857 11.04284,3.31285 1.11429,0.74619 2.21857,1.48238 3.31286,2.20857 5.89951,2.58667 11.78903,5.16333 17.66855,7.72999 5.89952,2.58667 11.78904,5.16333 17.66855,7.73" />
    <path
       style="fill:#87cdde;fill-opacity:1;fill-rule:evenodd;stroke:#000000;stroke-width:0"
       d="m 371.03961,359.99677 c -6.61371,-3.30686 -13.23941,-6.61971 -19.12891,-9.19722 -5.8895,-2.57752 -11.04283,-4.418 -13.98861,-5.70348 -2.94577,-1.28548 -3.68196,-2.02167 -5.88965,-3.49552 -2.20769,-1.47385 -5.88863,-3.68241 -8.09924,-5.3366 -2.21061,-1.65419 -2.9468,-2.75847 -3.49778,-3.31639 -0.55099,-0.55791 -0.91909,-0.55791 -1.65528,-1.10505 -0.73619,-0.54714 -1.84047,-1.65143 -2.76071,-2.20857 -0.92024,-0.55714 -1.65643,-0.55714 -3.3125,-1.65684 -1.65608,-1.09969 -4.23274,-3.30826 -6.07256,-4.59918 -1.83983,-1.29092 -2.94412,-1.65902 -5.88885,-2.94657 -2.94473,-1.28755 -7.72997,-3.49612 -11.04296,-5.1518 -3.313,-1.65567 -5.15348,-2.75996 -7.17788,-3.68173 -2.0244,-0.92176 -4.23297,-1.65795 -6.45354,-2.39814"
       id="path21923"
       inkscape:path-effect="#path-effect21925"
       inkscape:original-d="m 371.03961,359.99677 c -6.61571,-3.30286 -13.24141,-6.61571 -19.87712,-9.93856 -5.14333,-1.83048 -10.29666,-3.67095 -15.45998,-5.52143 -0.72619,-0.72619 -1.46238,-1.46238 -2.20857,-2.20857 -3.67095,-2.19857 -7.3519,-4.40713 -11.04285,-6.6257 -0.72619,-1.09429 -1.46238,-2.19857 -2.20857,-3.31286 -0.35809,0.01 -0.72619,0.01 -1.10428,0 -1.09429,-1.09428 -2.19857,-2.19857 -3.31286,-3.31285 -0.72619,0.01 -1.46238,0.01 -2.20857,0 -2.56666,-2.19857 -5.14332,-4.40714 -7.72999,-6.62571 -1.09428,-0.35809 -2.19857,-0.72619 -3.31285,-1.10428 -4.77523,-2.19857 -9.56047,-4.40714 -14.3557,-6.62571 -1.83047,-1.09429 -3.67095,-2.19857 -5.52142,-3.31285 -2.19857,-0.72619 -4.40714,-1.46238 -6.62571,-2.20857" />
    <path
       style="fill:#87cdde;fill-opacity:1;fill-rule:evenodd;stroke:#000000;stroke-width:0"
       d="m 355.57963,387.60388 c -4.03905,0 -8.08809,0 -13.2404,-1.46955 -5.1523,-1.46954 -11.40992,-4.41431 -14.54474,-6.06856 -3.13483,-1.65426 -3.13483,-2.02236 -3.68097,-2.39345 -0.54614,-0.3711 -1.65043,-0.73919 -2.38962,-1.28733 -0.73918,-0.54814 -1.10728,-1.28433 -1.65743,-1.65842 -0.55014,-0.3741 -1.28633,-0.3741 -3.31057,-1.84179 -2.02425,-1.46769 -5.3371,-4.41245 -8.66051,-7.36659"
       id="path21927"
       inkscape:path-effect="#path-effect21929"
       inkscape:original-d="m 355.57963,387.60388 c -4.03905,0.01 -8.08809,0.01 -12.14713,0 -6.24761,-2.93476 -12.50523,-5.87952 -18.77284,-8.83428 0.01,-0.35809 0.01,-0.72619 0,-1.10428 -1.09428,-0.3581 -2.19857,-0.72619 -3.31285,-1.10429 -0.3581,-0.72618 -0.72619,-1.46237 -1.10429,-2.20856 -0.72619,0.01 -1.46238,0.01 -2.20857,0 -3.30285,-2.93476 -6.6157,-5.87952 -9.93856,-8.83428" />
    <path
       style="fill:#87cdde;fill-opacity:1;fill-rule:evenodd;stroke:#000000;stroke-width:0"
       d="m 352.26677,409.68957 c -8.82237,-2.57319 -17.65665,-5.14986 -22.62688,-6.43992 -4.97023,-1.29007 -6.07451,-1.29007 -6.99475,-1.65316 -0.92024,-0.3631 -1.65643,-1.09929 -2.75983,-1.65496 -1.1034,-0.55567 -2.57579,-0.92377 -6.07253,-2.21115 -3.49675,-1.28739 -9.01817,-3.49596 -14.55166,-5.70936"
       id="path21931"
       inkscape:path-effect="#path-effect21933"
       inkscape:original-d="m 352.26677,409.68957 c -8.82427,-2.56666 -17.65855,-5.14333 -26.50282,-7.72999 -1.09429,0.01 -2.19857,0.01 -3.31286,0 -0.72619,-0.72619 -1.46238,-1.46238 -2.20857,-2.20857 -1.46238,-0.35809 -2.93476,-0.72619 -4.41714,-1.10428 -5.51142,-2.19857 -11.03284,-4.40714 -16.56426,-6.62571" />
    <ellipse
       style="fill:#000000;fill-opacity:1;fill-rule:evenodd;stroke:#000000;stroke-width:0"
       id="path22043"
       cx="978.39612"
       cy="376.56104"
       rx="38.64996"
       ry="30.919968" />
    <path
       style="fill:#afe9dd;fill-opacity:1;fill-rule:evenodd;stroke:#000000;stroke-width:0"
       d="m 354.47534,430.67098 c -12.50522,0 -25.02045,0 -37.54567,0"
       id="path22636"
       inkscape:path-effect="#path-effect22638"
       inkscape:original-d="m 354.47534,430.67098 c -12.50522,0.01 -25.02045,0.01 -37.54567,0" />
    <ellipse
       style="fill:#d7f4ee;fill-opacity:1;fill-rule:evenodd;stroke:#000000;stroke-width:0"
       id="path22696"
       cx="986.1261"
       cy="379.8739"
       rx="19.877123"
       ry="12.14713" />
    <path
       style="fill:#37abc8;fill-opacity:1;fill-rule:evenodd;stroke:#000000;stroke-width:0"
       id="path22796"
       d="m 791.23839,257.52864 c -4.68789,0.97786 -7.00448,2.19013 -10.19375,5.7788 -2.98078,3.32879 -4.48042,6.87203 -5.28281,11.20625 -0.77612,4.55463 0.17384,9.05098 1.55203,13.38495 0.83696,2.83421 2.66946,5.03488 4.63373,7.15448 1.62348,1.72089 3.28624,3.40404 4.97057,5.06521 2.28529,2.1145 4.77214,3.99973 7.15621,6.00124 3.2155,2.71548 6.61028,5.21581 10.09529,7.57329 4.74523,2.74095 9.46937,5.51873 14.23568,8.22286 0.51738,0.29353 1.08535,0.48921 1.61102,0.76765 0.47859,0.25351 1.86852,1.09619 1.39878,0.82662 -3.77051,-2.16382 -15.15612,-8.51903 -11.30121,-6.50942 19.03448,9.92289 8.70737,5.98183 15.80738,8.62791 2.35837,0.65229 4.54203,1.755 6.77375,2.73011 0,0 -11.64239,-9.21373 -11.64239,-9.21373 v 0 c -2.24181,-0.97738 -4.50243,-1.89771 -6.80969,-2.7114 -0.49319,-0.21864 -1.94104,-0.93533 -1.47956,-0.65591 3.70627,2.24412 15.01671,8.65019 11.22374,6.55593 -4.76396,-2.6304 -9.4162,-5.45831 -14.13741,-8.16469 -0.97756,-0.56038 -3.96023,-2.1497 -2.99114,-1.57479 3.68661,2.18704 7.40538,4.31942 11.10807,6.47914 -3.54299,-2.21419 -6.8888,-4.74394 -10.12523,-7.38051 -2.3249,-2.00372 -4.70016,-3.96833 -7.1377,-5.82175 -1.57769,-1.77374 -3.3733,-3.3401 -5.02396,-5.04641 -1.82921,-2.08456 -4.00902,-3.92257 -4.91607,-6.64625 -1.61834,-4.02846 -2.62152,-8.3709 -1.93553,-12.71483 0.67346,-3.96771 2.06434,-7.50558 4.87375,-10.48964 2.90866,-3.17789 5.48595,-4.26506 9.74168,-4.80732 0,0 -12.20523,-8.63779 -12.20523,-8.63779 z" />
    <path
       style="fill:#37abc8;fill-opacity:1;fill-rule:evenodd;stroke:#000000;stroke-width:0"
       id="path22800"
       d="m 793.56317,303.91344 c -3.79753,0.69969 -7.05643,2.78879 -10.27299,4.81082 -2.61139,1.90627 -4.96196,4.09207 -7.30761,6.3013 -2.42288,2.66173 -3.67493,5.96262 -5.03723,9.22768 -1.91791,4.17054 -2.67201,8.679 -3.16581,13.20262 -0.30065,3.43247 -0.34612,6.87838 -0.33466,10.32149 -0.0796,4.01029 0.53568,8.03019 2.35765,11.64716 0.56626,1.12412 1.26712,2.17522 1.90068,3.26283 5.02433,7.13218 11.67493,12.73154 18.74411,17.72142 8.27842,5.78094 16.57984,11.67671 25.90489,15.69678 4.10936,1.47582 8.26049,2.85191 12.3732,4.32208 0,0 -11.72729,-9.12443 -11.72729,-9.12443 v 0 c -4.10751,-1.33602 -8.16117,-2.81248 -12.19024,-4.37122 -5.09585,-2.49923 -6.60918,-3.30728 8.46165,5.16495 0.69276,0.38945 -1.30412,-0.90866 -1.96079,-1.35629 -2.44436,-1.66624 -4.88588,-3.33594 -7.32806,-5.00559 -7.20838,-4.94399 -13.71165,-10.04459 -18.97894,-17.1511 -2.85683,-4.65037 -4.62738,-8.49318 -4.31217,-14.05961 0.005,-3.40727 -0.0342,-6.81916 0.21004,-10.2202 0.38628,-4.39653 1.05823,-8.77411 2.91442,-12.82487 1.33707,-3.0521 2.55898,-6.1619 4.86906,-8.63819 2.22094,-2.18743 4.53075,-4.26933 7.07805,-6.08061 3.12092,-1.94198 6.28312,-3.8919 10.03903,-4.21893 0,0 -12.23699,-8.62809 -12.23699,-8.62809 z" />
    <path
       style="fill:#37abc8;fill-opacity:1;fill-rule:evenodd;stroke:#000000;stroke-width:0"
       id="path22802"
       d="m 781.41604,376.79622 c -2.39144,0.62059 -5.00423,0.90431 -7.02768,2.48249 -1.63253,1.27327 -2.55341,2.68351 -3.80664,4.30411 -3.69133,5.63513 -5.50974,12.20505 -7.56127,18.55451 -1.89162,7.31024 -2.89244,14.81139 -2.27514,22.34621 0.57087,5.68822 3.32338,10.2146 7.24306,14.2127 7.73511,5.76093 16.22547,10.67957 24.85345,14.93651 4.8893,2.21655 9.91564,4.10203 14.91539,6.04854 6.43281,2.47385 12.56656,5.62611 18.93007,8.261 3.33733,1.43996 6.70491,2.80768 10.05993,4.20554 0,0 -11.45132,-9.02859 -11.45132,-9.02859 v 0 c -3.33553,-1.37806 -6.67529,-2.74631 -9.99326,-4.16639 -6.34888,-2.74799 -12.54724,-5.83793 -19.02579,-8.28425 -5.04141,-1.97594 -10.10063,-3.93202 -14.98325,-6.2812 -5.482,-2.83547 -2.73539,-1.45426 8.89237,5.30582 0.68356,0.3974 -1.36642,-0.7961 -2.04303,-1.20521 -0.41053,-0.24822 -3.98951,-2.47179 -4.32452,-2.68975 -0.75186,-0.48916 -1.48595,-1.0051 -2.22892,-1.50765 -4.03782,-3.57857 -6.95055,-7.86377 -7.75487,-13.30484 -0.92206,-7.48467 0.0698,-14.55174 1.98646,-21.81853 1.96319,-6.19146 3.71032,-12.60878 7.36073,-18.0628 3.43827,-4.23996 5.16123,-4.96382 10.47122,-5.68013 0,0 -12.23699,-8.62809 -12.23699,-8.62809 z" />
    <path
       style="fill:#37abc8;fill-opacity:1;fill-rule:evenodd;stroke:#000000;stroke-width:0"
       id="path22804"
       d="m 781.30936,445.69153 c -2.50801,1.41383 -4.96662,3.09218 -6.81977,5.33474 -1.30354,1.57746 -1.93431,2.91714 -2.90835,4.68915 -2.31304,5.25465 -3.67387,10.78417 -4.46148,16.44944 -0.14456,4.64188 -1.25895,9.49616 -0.45008,14.13667 0.18301,1.04996 0.55435,2.05824 0.83152,3.08736 2.51889,6.2344 7.21497,11.09209 12.43862,15.16114 8.4111,6.32266 17.4435,11.81721 26.87298,16.49411 5.06489,2.69493 10.60184,4.29294 16.05154,5.9968 6.37519,1.63376 12.60815,3.76522 18.99764,5.34117 0.56104,0.14422 1.12208,0.28844 1.68312,0.43265 0,0 -11.80369,-9.01908 -11.80369,-9.01908 v 0 c -0.53488,-0.12559 -1.06976,-0.25118 -1.60464,-0.37678 -6.30437,-1.57908 -12.50212,-3.55193 -18.76588,-5.28103 -5.48027,-1.76748 -10.9856,-3.54928 -16.0642,-6.31477 -5.33645,-2.81489 -4.14383,-2.22231 8.18257,4.86443 0.78237,0.4498 -1.56034,-0.90825 -2.32057,-1.39454 -1.67349,-1.07049 -3.30885,-2.20043 -4.93083,-3.34748 -0.92164,-0.65179 -1.82047,-1.33527 -2.7307,-2.0029 -5.24111,-3.7487 -9.9801,-8.39832 -12.77298,-14.28893 -0.30968,-0.93186 -0.72302,-1.83547 -0.92905,-2.79559 -0.90477,-4.21625 0.20193,-9.56573 0.30014,-13.85568 0.72082,-5.50307 1.98795,-10.86002 4.23373,-15.96185 2.35598,-4.3471 4.80569,-7.0782 9.42071,-9.05191 0,0 -12.45035,-8.29712 -12.45035,-8.29712 z" />
    <path
       style="fill:#37abc8;fill-opacity:1;fill-rule:evenodd;stroke:#000000;stroke-width:0"
       id="path22806"
       d="m 785.71697,505.99266 c -4.94777,0.99763 -8.44813,4.6718 -11.30085,8.58439 -3.56984,5.02 -5.43199,10.87796 -7.44075,16.62376 -1.69115,5.35531 -2.21277,10.96985 -2.60453,16.54336 -0.0447,3.66529 -0.72663,7.44054 0.37257,10.9993 1.00793,2.52552 3.1564,4.11879 5.34396,5.57277 1.42465,0.853 0.75878,0.44469 2.00049,1.22021 0,0 13.92149,5.46112 13.92149,5.46112 v 0 c -1.22793,-0.90109 -0.56297,-0.45786 -2.00761,-1.31036 -2.15857,-1.17172 -4.4055,-2.56893 -5.70753,-4.70656 -1.77459,-3.14383 -0.68349,-7.0088 -0.82578,-10.46457 0.26591,-5.46355 0.71111,-10.96642 2.37523,-16.21112 1.91226,-5.62898 3.60265,-11.39837 7.20797,-16.24176 2.74693,-3.6668 6.07158,-6.96395 10.87057,-7.43275 0,0 -12.20523,-8.63779 -12.20523,-8.63779 z" />
    <path
       style="fill:#37abc8;fill-opacity:1;fill-rule:evenodd;stroke:#000000;stroke-width:0"
       id="path22808"
       d="m 717.21771,247.1263 c -5.37556,2.99091 -8.726,7.51102 -11.67626,12.76512 -2.77977,6.00951 -3.98453,12.45453 -3.8879,19.03838 0.37363,6.32541 2.47365,12.20508 5.35289,17.7819 3.46371,6.85266 9.99838,10.8804 16.3553,14.73044 12.72983,8.2947 26.54318,14.41625 40.393,20.49005 5.10482,2.22835 10.28132,4.27284 15.46409,6.30995 2.16905,0.76383 1.11907,0.35761 3.15294,1.21095 0,0 -11.68642,-9.18974 -11.68642,-9.18974 v 0 c -2.0457,-0.77866 -1.00421,-0.38775 -3.12484,-1.17174 -5.06117,-1.95327 -10.10319,-3.95257 -15.09001,-6.09017 -6.41173,-2.7886 -12.85398,-5.55787 -19.10675,-8.69264 -1.56554,-0.78487 -6.09755,-3.43312 -4.64517,-2.45458 2.59136,1.74592 5.38201,3.17605 8.07302,4.76408 -6.2181,-3.64074 -12.8163,-7.38869 -16.40524,-13.9046 -3.01205,-5.32075 -5.16393,-11.03683 -5.68281,-17.17833 -0.24808,-6.31677 0.87309,-12.57794 3.47823,-18.36692 2.83804,-5.06475 6.19441,-9.35805 11.57257,-11.89282 0,0 -12.53664,-8.14933 -12.53664,-8.14933 z" />
    <path
       style="fill:#37abc8;fill-opacity:1;fill-rule:evenodd;stroke:#000000;stroke-width:0"
       id="path22810"
       d="m 722.19724,311.97374 c -5.13387,8.66693 -7.21362,18.72532 -8.881,28.55169 -0.98412,6.79023 0.47611,13.41782 1.98022,20.00264 1.61084,7.05207 1.03305,4.67569 3.12679,11.79947 3.34129,10.4509 8.74292,20.10612 15.28061,28.87681 6.639,8.3155 15.98951,12.34163 25.15828,17.52695 2.99844,1.62396 6.49524,1.36051 9.6542,2.32882 0.47904,0.14737 0.95808,0.29474 1.43713,0.44211 0,0 -11.79079,-9.08173 -11.79079,-9.08173 v 0 c -0.49057,-0.13157 -0.98115,-0.26313 -1.47172,-0.39469 -3.19871,-0.60518 -6.47703,-0.91745 -9.38146,-2.54487 3.61531,2.11694 7.24449,4.21038 10.84594,6.35083 0.6318,0.37549 -1.30774,-0.6738 -1.9359,-1.05534 -0.72859,-0.44254 -1.43959,-0.91526 -2.13051,-1.41457 -2.59174,-1.87296 -5.0404,-3.96456 -7.07143,-6.4462 -6.86389,-8.50067 -12.33098,-18.15478 -15.80872,-28.52929 -2.98081,-10.05184 -6.06103,-20.50419 -5.09939,-31.09125 1.16557,-8.20416 2.55404,-16.85107 6.49334,-24.25808 0.60294,-1.13371 1.43874,-2.12729 2.15811,-3.19094 0,0 -12.5637,-7.87236 -12.5637,-7.87236 z" />
    <path
       style="fill:#37abc8;fill-opacity:1;fill-rule:evenodd;stroke:#000000;stroke-width:0"
       id="path22812"
       d="m 719.36444,383.82825 c -6.16881,2.48988 -9.9108,7.8184 -13.19761,13.3336 -1.89694,4.4736 -3.69171,9.24146 -4.13799,14.13311 -0.31263,3.42673 0.003,4.99121 0.32604,8.45333 0.98825,8.33015 3.7867,16.19913 7.55522,23.64093 3.05999,5.48611 7.92934,9.47747 13.04351,12.95706 4.812,2.75047 9.56885,5.59976 14.436,8.25142 0.55971,0.30493 1.21072,0.39898 1.81485,0.60217 2.46675,0.82962 4.92163,1.68883 7.41718,2.42706 5.27349,1.59017 10.3156,3.82543 15.41454,5.88803 4.07259,1.56439 8.29864,2.65625 12.35483,4.26054 0,0 -11.67464,-9.13583 -11.67464,-9.13583 v 0 c -4.05185,-1.41652 -8.19265,-2.57246 -12.18005,-4.1738 -5.15894,-2.07926 -10.26354,-4.32845 -15.61328,-5.88682 -6.04401,-1.95237 -20.29236,-8.08182 1.77956,3.11967 -5.2405,-3.17424 -10.20012,-7.09565 -13.50488,-12.32795 -3.92331,-7.24327 -6.89801,-14.96131 -7.91096,-23.19078 -0.14349,-1.41115 -0.36824,-2.81639 -0.43047,-4.23345 -0.26518,-6.03817 1.49194,-12.02866 3.88915,-17.49996 3.16601,-5.32361 6.84565,-10.33848 13.01514,-12.27452 0,0 -12.39614,-8.34381 -12.39614,-8.34381 z" />
    <path
       style="fill:#37abc8;fill-opacity:1;fill-rule:evenodd;stroke:#000000;stroke-width:0"
       id="path22816"
       d="m 715.98424,445.45362 c -4.04892,1.32149 -8.20866,2.71404 -11.83543,5.0076 -0.82529,0.52192 -1.56165,1.17269 -2.34248,1.75903 -3.93192,3.18877 -5.28516,7.55224 -5.88306,12.37735 -0.37778,7.60764 1.5879,14.87769 4.63993,21.76562 3.57248,7.42821 9.24445,13.51518 14.87528,19.42835 5.21706,5.51615 11.13441,10.27907 17.21148,14.80219 7.84452,5.49084 16.30493,9.86988 25.17823,13.3367 4.42458,1.54033 8.68597,3.45024 13.17458,4.81018 0.56185,0.21804 1.1237,0.43608 1.68555,0.65412 0,0 -11.69411,-9.13535 -11.69411,-9.13535 v 0 c -0.562,-0.19026 -1.12399,-0.38053 -1.68599,-0.57079 -4.43004,-1.43797 -8.68954,-3.31772 -13.07692,-4.87654 -2.05435,-0.83834 -4.11031,-1.67294 -6.11753,-2.62087 -0.62922,-0.29716 -2.46682,-1.28475 -1.87284,-0.92224 2.64261,1.61282 15.93788,9.3847 8.00439,4.71069 -6.18155,-4.4216 -12.15678,-9.16658 -17.4589,-14.63069 -5.63082,-5.76675 -11.2681,-11.7442 -15.00406,-18.95554 -3.21608,-6.68409 -5.20915,-13.43321 -4.78298,-20.93824 0.49771,-4.43701 1.54987,-8.45031 5.20637,-11.37641 4.19562,-3.01875 8.99767,-4.99646 14.04513,-6.1164 0,0 -12.26664,-8.50876 -12.26664,-8.50876 z" />
    <path
       style="fill:#37abc8;fill-opacity:1;fill-rule:evenodd;stroke:#000000;stroke-width:0"
       id="path22818"
       d="m 714.04776,503.36949 c -3.16977,0.0286 -6.87495,-1.37218 -9.86107,0.20818 -0.62175,0.32906 -1.12934,0.83903 -1.69402,1.25854 -3.50261,3.57327 -5.5257,8.27221 -7.41773,12.83351 -1.75849,4.45144 -3.56917,8.87245 -4.87447,13.48202 -1.27285,3.73205 -2.30498,7.51968 -2.90041,11.41745 -0.37546,3.35285 -0.5371,6.73778 -0.3516,10.10729 0.43453,3.93214 2.35008,7.43003 4.23395,10.83462 1.29632,2.08099 0.59452,1.07809 2.10536,3.00872 0,0 13.66536,5.7831 13.66536,5.7831 v 0 c -1.61944,-1.71777 -0.8692,-0.80213 -2.24662,-2.75026 -1.83994,-3.23678 -3.83166,-6.50482 -4.46211,-10.22959 -0.32735,-3.26348 -0.0737,-6.56413 0.19193,-9.82601 0.50265,-3.85731 1.44586,-7.61858 2.77534,-11.27815 1.1751,-4.59318 2.97351,-8.95601 4.70515,-13.36203 1.74869,-4.29584 3.65106,-8.78421 7.06441,-12.03212 0.4784,-0.28251 0.91611,-0.64951 1.43521,-0.84754 2.84127,-1.08394 6.68135,0.24662 9.61797,0.33091 0,0 -11.98665,-8.93864 -11.98665,-8.93864 z" />
    <path
       style="fill:#37abc8;fill-opacity:1;fill-rule:evenodd;stroke:#000000;stroke-width:0"
       id="path22820"
       d="m 638.75949,246.99155 c -2.89991,8.37784 -5.60347,16.79475 -7.49215,25.46119 -1.2044,5.6452 -1.89967,11.31305 -1.08328,17.04378 1.7667,6.13772 5.19687,11.68062 8.87752,16.84893 4.01847,5.80847 9.41418,10.31117 15.06754,14.43918 3.29476,2.15023 4.97029,3.319 8.58999,5.30499 6.09898,3.34628 12.1897,6.71244 18.38693,9.87306 6.28968,3.20778 13.16318,5.41837 19.82499,7.69009 7.75801,2.55047 15.76942,4.20296 23.69932,6.11487 0,0 -11.54322,-8.80181 -11.54322,-8.80181 v 0 c -7.79568,-1.79362 -15.64412,-3.44794 -23.25236,-5.95027 -6.08258,-2.10723 -7.06754,-2.34405 -13.12791,-4.88424 -2.2152,-0.92849 -5.27784,-4.9282 -6.58937,-2.91597 -1.29478,1.98651 4.26887,2.25856 5.88987,3.98918 0.6315,0.6742 -8.29776,-5.03356 -8.37194,-5.08051 -5.63242,-3.98265 -11.09599,-8.26791 -15.11581,-13.96252 -3.74028,-4.94458 -7.08888,-10.2978 -9.11643,-16.18791 -0.9695,-5.57101 -0.40535,-11.1421 0.63491,-16.67952 1.7141,-8.60765 4.20928,-17.0372 7.63026,-25.13064 0,0 -12.90886,-7.17188 -12.90886,-7.17188 z" />
    <path
       style="fill:#37abc8;fill-opacity:1;fill-rule:evenodd;stroke:#000000;stroke-width:0"
       id="path22822"
       d="m 660.88271,322.88852 c -6.0107,3.17863 -10.29624,8.67423 -13.87452,14.30837 -0.69834,1.5138 -1.89017,3.83083 -2.23254,5.53298 -0.89316,4.44048 1.05943,8.62821 2.84929,12.54397 3.58875,6.88026 8.19068,13.159 12.86078,19.33228 4.32426,5.57874 9.22068,10.6693 14.13382,15.72362 4.23329,4.37734 9.29118,7.8204 14.41079,11.06627 7.01907,4.64145 14.25139,8.81523 22.062,11.87776 0,0 -11.63403,-9.15432 -11.63403,-9.15432 v 0 c -1.46835,-0.60968 -2.31089,-0.94222 -3.76033,-1.61491 -0.56902,-0.26408 -2.22991,-1.1468 -1.69172,-0.8245 3.5763,2.14174 7.20743,4.19057 10.81115,6.28586 -0.69453,-0.42084 -1.38906,-0.84167 -2.08359,-1.26251 -5.19678,-3.13045 -10.28192,-6.55183 -14.65601,-10.78001 -4.92055,-5.01982 -9.82758,-10.07179 -14.21844,-15.57087 -4.72031,-6.07578 -9.28511,-12.29567 -12.99723,-19.05228 -1.68319,-3.46572 -3.82825,-7.46739 -3.20391,-11.49381 0.25279,-1.6303 1.32191,-3.81871 1.94991,-5.27331 3.32633,-5.3728 7.44858,-10.87972 13.58001,-13.1568 0,0 -12.30543,-8.48779 -12.30543,-8.48779 z" />
    <path
       style="fill:#37abc8;fill-opacity:1;fill-rule:evenodd;stroke:#000000;stroke-width:0"
       id="path22824"
       d="m 663.20109,380.32624 c -2.67852,1.10216 -5.82072,1.92482 -7.7985,4.21844 -0.55712,0.64609 -0.96378,1.40798 -1.44567,2.11197 -3.1451,5.37674 -4.59971,11.46672 -5.68701,17.53808 -1.07419,6.17708 -1.05718,12.4531 -0.78292,18.69319 0.37477,6.21939 2.0195,12.27238 5.02538,17.74541 0.85042,1.54842 1.85257,3.00853 2.77885,4.5128 4.22688,6.39246 9.52889,11.9305 15.85116,16.24558 4.98724,2.79275 9.90864,5.7065 14.96174,8.37825 0.86809,0.45899 1.85474,0.64663 2.77167,0.99804 3.91953,1.50215 7.76054,3.19149 11.69719,4.65083 3.4129,1.34869 1.7408,0.66998 5.0175,2.03312 0,0 -11.55842,-9.10363 -11.55842,-9.10363 v 0 c -3.26413,-1.31231 -1.60158,-0.65867 -4.9886,-1.95849 -5.5529,-2.128 -27.77958,-11.99438 -4.22123,0.33543 -6.55239,-4.04735 -12.03024,-9.49032 -16.4403,-15.80854 -0.92574,-1.44654 -1.93233,-2.84442 -2.77722,-4.33963 -2.96053,-5.23933 -4.58186,-11.14098 -5.06191,-17.11527 -0.31772,-6.14624 -0.30606,-12.30657 0.63781,-18.4074 0.9815,-5.87116 2.38198,-11.73571 5.47561,-16.89686 0.44155,-0.58185 0.8228,-1.21481 1.32463,-1.74554 1.95486,-2.06749 4.98426,-2.7617 7.57023,-3.62784 0,0 -12.34999,-8.45794 -12.34999,-8.45794 z" />
    <path
       style="fill:#37abc8;fill-opacity:1;fill-rule:evenodd;stroke:#000000;stroke-width:0"
       id="path22826"
       d="m 657.52034,445.18319 c -4.61749,4.58439 -7.72347,10.2812 -10.20426,16.22633 -1.5316,4.57439 -2.69973,9.3735 -2.62704,14.23641 0.0462,3.09348 0.54834,5.50738 1.03516,8.5625 2.31338,9.97354 6.08483,19.51332 10.64446,28.6546 3.90122,7.61977 9.69116,13.40175 16.28887,18.68259 7.94423,6.19503 16.67007,11.34974 25.73902,15.73278 0,0 -11.53875,-9.22199 -11.53875,-9.22199 v 0 c -5.75376,-2.91392 -2.05308,-1.0897 8.65398,5.2122 0.6845,0.40288 -1.40016,-0.75284 -2.07262,-1.17549 -2.51282,-1.57932 -4.8751,-3.41158 -7.27948,-5.14507 -1.97365,-1.51309 -4.2346,-3.18467 -6.07022,-4.85557 -4.2251,-3.84597 -7.77545,-8.3766 -10.6276,-13.31865 -4.67675,-8.95947 -8.42414,-18.36793 -10.77339,-28.21947 -0.46422,-2.82834 -0.98629,-5.35452 -1.05625,-8.22377 -0.11471,-4.70501 0.9058,-9.375 2.383,-13.80958 2.35994,-5.74862 5.37281,-11.34311 10.17377,-15.44004 0,0 -12.66865,-7.89778 -12.66865,-7.89778 z" />
    <path
       style="fill:#37abc8;fill-opacity:1;fill-rule:evenodd;stroke:#000000;stroke-width:0"
       id="path22828"
       d="m 649.86923,506.69663 c -4.78237,-0.12184 -9.58108,-0.81512 -14.37039,-0.47129 -1.21935,0.0875 -2.42729,0.29358 -3.64093,0.44036 -8.38279,1.8819 -15.46409,6.91231 -22.23976,11.95288 -4.31098,3.15671 -8.58683,6.45298 -12.12986,10.48472 -1.76442,2.00779 -2.30628,2.95896 -3.76564,5.13163 -2.61795,3.64922 -4.0702,7.81011 -4.85152,12.18842 0,0 13.13349,6.95727 13.13349,6.95727 v 0 c 0.5983,-4.22055 1.89951,-8.20682 4.3639,-11.73988 1.33782,-2.04539 1.92072,-3.07692 3.54552,-4.96246 3.45209,-4.00605 7.68932,-7.18935 11.90473,-10.33399 6.63558,-4.909 13.60578,-9.75888 21.89899,-11.24536 6.05148,-0.50559 12.10379,-0.1951 18.13399,0.50776 0,0 -11.98252,-8.91006 -11.98252,-8.91006 z" />
    <path
       style="fill:#37abc8;fill-opacity:1;fill-rule:evenodd;stroke:#000000;stroke-width:0"
       id="path22830"
       d="m 582.70162,250.99382 c -2.6906,5.61649 -4.45516,11.63623 -6.06482,17.63659 -1.10432,5.27917 -2.50096,10.9438 -1.02688,16.30766 0.34323,1.24892 0.88207,2.43565 1.3231,3.65347 0.83061,1.46672 1.56003,2.99556 2.49185,4.40016 6.07947,9.16404 14.22262,16.88425 22.66395,23.81763 5.12466,3.74974 4.91841,3.81013 10.40881,6.98684 5.75979,3.33258 11.52405,6.6597 17.35961,9.85776 4.61179,2.5274 9.62561,4.433 14.43925,6.53512 6.08733,3.18694 12.80701,4.59247 19.29031,6.66381 2.44118,0.76592 1.38099,0.32426 3.22254,1.21935 0,0 -11.71514,-9.23249 -11.71514,-9.23249 v 0 c -1.84866,-0.62479 -0.79374,-0.28253 -3.17258,-1.0023 -6.40813,-1.86723 -12.88772,-3.53032 -18.88683,-6.55975 -2.00571,-0.87211 -7.28576,-3.15216 -9.18964,-4.04658 -1.69435,-0.79598 -6.43261,-3.73051 -5.03785,-2.48189 1.99626,1.78708 4.64163,2.6824 6.88986,4.13984 3.50087,2.26949 -14.46238,-8.49909 -10.50019,-6.81216 -1.66545,-1.32282 -3.38051,-2.58546 -4.99633,-3.96846 -7.68253,-6.57552 -15.04988,-14.59957 -20.0888,-23.3907 -1.02169,-2.59147 -1.63982,-3.63814 -1.98727,-6.33339 -0.5538,-4.29597 0.47588,-8.63845 1.30501,-12.81675 1.49491,-5.83295 3.2423,-11.72349 6.18798,-17.00541 0,0 -12.91594,-7.56835 -12.91594,-7.56835 z" />
    <path
       style="fill:#37abc8;fill-opacity:1;fill-rule:evenodd;stroke:#000000;stroke-width:0"
       id="path22832"
       d="m 590.82453,307.21143 c -4.86893,3.99409 -8.99365,9.01715 -11.77929,14.68976 -0.58441,1.19008 -1.02858,2.44404 -1.54287,3.66607 -2.70397,7.64002 -3.07867,14.66798 -1.80867,22.59636 1.98169,8.84578 7.46516,16.23821 12.90431,23.28124 6.26764,8.37225 14.06392,15.31046 22.21738,21.77603 7.34378,5.60978 14.74443,11.15411 22.54185,16.12193 8.27421,5.2425 16.82551,10.03793 25.76219,14.03725 5.48353,2.72068 1.80302,0.92762 -10.62069,-6.16862 0,0 13.97457,5.36742 13.97457,5.36742 v 0 c -14.05366,-8.04208 -8.87541,-5.61495 -14.95462,-8.40869 -1.98464,-0.91808 -3.97313,-1.83743 -5.92771,-2.81834 -0.78185,-0.39237 -3.07695,-1.66316 -2.32915,-1.20925 2.53971,1.54154 15.78771,9.31613 7.70618,4.47805 -7.95728,-4.85706 -15.4566,-10.41124 -22.85285,-16.07606 -8.18709,-6.37228 -16.07976,-13.1736 -22.39489,-21.4762 -5.38484,-6.79965 -10.68547,-13.98203 -12.9121,-22.50579 -0.50991,-2.68951 -0.85385,-3.99945 -0.98223,-6.76731 -0.23853,-5.14242 0.75717,-10.26173 2.33739,-15.13374 0.48465,-1.17413 0.90103,-2.37881 1.45395,-3.52238 2.66236,-5.50639 6.64613,-10.4328 11.69664,-13.89339 0,0 -12.48939,-8.03434 -12.48939,-8.03434 z" />
    <path
       style="fill:#37abc8;fill-opacity:1;fill-rule:evenodd;stroke:#000000;stroke-width:0"
       id="path22834"
       d="m 598.10481,382.31765 c -4.40065,1.22142 -8.92592,2.2774 -12.19845,5.7064 -0.85083,0.89152 -1.5235,1.93747 -2.28526,2.90621 -3.92693,5.86209 -5.31402,12.65324 -5.65118,19.58159 0.37208,5.16034 1.04143,10.40057 2.45044,15.39662 0.93598,3.31878 1.87291,5.53084 3.10771,8.73424 3.22535,8.02615 7.633,15.37392 12.87171,22.22238 1.5743,1.90066 3.04347,3.8207 4.89948,5.46954 5.78247,5.13702 20.21279,12.57709 24.992,15.31035 5.06163,2.61712 10.42032,4.58627 15.6246,6.8849 4.21665,1.97367 8.57878,3.75985 13.1277,4.79376 10.52244,3.04456 -8.90934,-0.0389 -9.53079,-7.06308 0,0 12.42907,8.37977 12.42907,8.37977 v 0 c 0.48824,-0.49622 2.00455,-1.04912 1.46472,-1.48867 -6.46785,-5.2663 -9.79001,-7.19141 -16.11206,-8.81831 -4.44186,-1.24687 -8.73472,-2.96087 -12.90959,-4.92055 -5.20122,-2.18783 -10.45501,-4.2887 -15.45201,-6.92267 3.15712,1.85479 6.30061,3.73299 9.47136,5.56437 1.06943,0.61769 -2.11256,-1.27982 -3.16686,-1.92298 -4.33002,-2.64145 -8.51681,-5.30125 -11.48897,-9.54402 -5.33913,-6.71175 -9.8964,-13.91248 -13.14437,-21.88873 -1.37416,-3.41726 -2.09601,-4.96092 -3.11764,-8.50807 -1.40162,-4.86649 -2.09825,-9.9677 -2.53886,-14.99673 0.23972,-6.62246 1.42081,-13.17467 5.17567,-18.78715 0.71957,-0.8734 1.34828,-1.83039 2.1587,-2.62021 3.20826,-3.12668 7.82127,-4.05187 12.05986,-4.84088 0,0 -12.23698,-8.62808 -12.23698,-8.62808 z" />
    <path
       style="fill:#37abc8;fill-opacity:1;fill-rule:evenodd;stroke:#000000;stroke-width:0"
       id="path22836"
       d="m 583.39601,438.62808 c -4.11334,0.62789 -8.22217,1.45455 -12.06435,3.10937 -3.54161,1.52536 -4.70037,2.41778 -8.03815,4.47707 -8.00073,5.77567 -13.9318,13.59708 -18.59774,22.18949 -3.19529,6.51882 -4.27683,13.78275 -4.47049,20.97378 0.1001,6.69011 2.91664,12.8038 6.19483,18.49393 3.7959,6.00544 8.19805,11.60425 13.24184,16.60396 2.82256,2.46777 5.48567,5.16258 8.53903,7.35582 5.09795,3.66188 10.86413,6.29056 16.33143,9.37392 2.97583,1.17475 6.13214,1.7741 9.18964,2.69003 0,0 -11.75814,-9.05196 -11.75814,-9.05196 v 0 c -3.03322,-0.8208 -6.12985,-1.52086 -8.98509,-2.86844 22.70674,13.38022 10.39153,6.58333 6.94562,3.90612 -2.35237,-1.82762 -4.48354,-3.94299 -6.77041,-5.84797 -5.14896,-4.80068 -9.53638,-10.31629 -13.35116,-16.2332 -3.40372,-5.40023 -6.22772,-11.27091 -6.53438,-17.75532 -0.0121,-7.00089 0.97487,-14.06027 3.96776,-20.4543 4.44325,-8.43193 10.19962,-16.09154 18.1254,-21.56647 1.36559,-0.79375 2.69452,-1.65422 4.09677,-2.38126 5.00107,-2.59297 10.49477,-3.93013 16.08822,-4.37033 0,0 -12.15063,-8.64424 -12.15063,-8.64424 z" />
    <path
       style="fill:#37abc8;fill-opacity:1;fill-rule:evenodd;stroke:#000000;stroke-width:0"
       id="path22838"
       d="m 517.87318,278.15056 c 0.0777,6.93307 1.86766,13.66207 4.08941,20.17722 3.15748,9.03136 8.1868,17.20115 13.53318,25.07301 4.97521,7.20948 10.7531,13.75307 17.53462,19.29207 7.40257,5.28275 15.19351,10.33308 23.71528,13.58896 3.56468,1.36194 7.24805,2.15928 10.98523,2.84694 3.26653,0.58983 6.58725,0.65087 9.87073,1.07882 0,0 -11.89534,-8.84261 -11.89534,-8.84261 v 0 c -3.20799,-0.28546 -6.4334,-0.4313 -9.60563,-1.03316 -3.65708,-0.75437 -7.21658,-1.60669 -10.68239,-3.04253 -1.31431,-0.54451 -17.72675,-8.64774 4.6507,3.22701 1.27866,0.67853 -2.39656,-1.62419 -3.59483,-2.43629 -1.07677,-0.82586 -2.19494,-1.60038 -3.23031,-2.47757 -5.61573,-4.75777 -10.20408,-10.59007 -14.57717,-16.46208 -5.38512,-7.72265 -10.41356,-15.7709 -13.60586,-24.68126 -2.21329,-6.25364 -4.14588,-12.81415 -3.86365,-19.51963 0,0 -13.32397,-6.7889 -13.32397,-6.7889 z" />
    <path
       style="fill:#37abc8;fill-opacity:1;fill-rule:evenodd;stroke:#000000;stroke-width:0"
       id="path22840"
       d="m 531.75722,316.93763 c -2.0872,2.43879 -4.17943,5.12417 -5.22638,8.20967 -0.87027,2.56485 -1.18216,5.25257 -1.61309,7.90794 -0.98821,7.2452 -1.39085,14.64517 -0.22922,21.90173 0.21173,1.32263 0.56582,2.61851 0.84874,3.92776 1.55624,6.91526 4.59853,11.76187 9.31842,16.92208 10.52122,9.65545 23.71181,15.72384 36.29702,22.24858 9.23803,4.62713 18.27947,9.62636 27.53082,14.22652 5.41819,2.81606 8.04688,4.22281 -8.35942,-4.84899 -0.20928,-0.11573 0.41962,0.63932 0.56141,0.44673 0.25226,-0.34266 0.0325,-0.85038 0.0488,-1.27557 0,0 12.2519,8.66825 12.2519,8.66825 v 0 c 0.48352,-0.48426 1.20199,-0.81519 1.45055,-1.45278 0.13428,-0.34445 -0.18546,-0.79333 -0.49782,-0.99109 -9.59008,-6.07165 -10.24356,-6.32783 -16.78991,-9.60761 -9.19012,-4.55257 -18.18334,-9.48348 -27.33754,-14.10742 -3.49895,-1.82965 -19.70067,-10.60092 -1.28687,-0.082 1.34726,0.76962 -2.65182,-1.61427 -3.93446,-2.48735 -1.1876,-0.80839 -2.34382,-1.66406 -3.47168,-2.55391 -1.04046,-0.8209 -2.01951,-1.71679 -3.02926,-2.57518 -4.73245,-4.83208 -7.95629,-9.61254 -9.68333,-16.24306 -0.31509,-1.26423 -0.70864,-2.51146 -0.94528,-3.79269 -1.316,-7.12514 -0.92972,-14.40879 0.034,-21.54496 1.04675,-6.07568 2.01898,-10.66873 6.74479,-14.96595 0,0 -12.68219,-7.9307 -12.68219,-7.9307 z" />
    <path
       style="fill:#37abc8;fill-opacity:1;fill-rule:evenodd;stroke:#000000;stroke-width:0"
       id="path22842"
       d="m 538.30713,372.58132 c -4.46748,1.32348 -7.90289,4.47746 -10.93196,7.88099 -3.10362,3.68622 -5.77957,7.70959 -8.04191,11.95849 -2.93743,6.43223 -5.77776,12.9117 -8.31115,19.51413 -2.29636,5.9127 -3.95068,12.03343 -4.80757,18.3145 -0.70442,5.46194 -0.0263,9.19924 2.60105,14.01159 2.97393,5.10412 7.32337,9.12668 11.64348,13.06732 7.70317,6.74813 15.42447,13.47473 23.13634,20.21288 2.2698,-1.08251 1.87967,3.71266 3.57298,3.62138 0.55232,-0.0298 -0.10333,-1.80281 0.41393,-1.6069 4.03439,1.52798 7.61354,4.05933 11.42031,6.089 0,0 -13.78363,-5.45503 -13.78363,-5.45503 v 0 c 4.82915,2.77023 9.38019,6.09468 14.48746,8.31068 0.57885,0.25115 1.13691,-0.93075 1.07426,-1.55862 -0.18094,-1.81307 -3.61798,-2.34652 -3.7735,-3.9548 -7.73818,-6.68891 -15.50834,-13.33883 -23.12461,-20.16822 -4.20103,-3.85417 -8.52333,-7.69002 -11.58011,-12.56441 -2.90919,-4.61101 -3.63805,-7.68184 -3.03907,-13.14969 0.7091,-6.20693 2.15012,-12.28765 4.43759,-18.11442 2.49787,-6.54526 5.38671,-12.92872 8.40007,-19.25183 2.22865,-4.13297 4.87847,-8.04378 7.90749,-11.63602 2.89193,-3.25763 6.21666,-6.1279 10.60397,-7.03322 0,0 -12.30542,-8.4878 -12.30542,-8.4878 z" />
    <path
       style="fill:#37abc8;fill-opacity:1;fill-rule:evenodd;stroke:#000000;stroke-width:0"
       id="path22844"
       d="m 505.09325,442.55491 c -5.76073,3.32117 -9.92304,8.60507 -13.62062,14.00693 -3.23251,4.44209 -5.08108,9.56459 -6.82787,14.7104 -1.54645,4.60074 -1.74901,9.4351 -1.91606,14.2383 -0.055,5.13557 -0.26034,10.27871 -0.0286,15.41164 0.0544,3.80934 1.59778,7.13067 3.84236,10.11913 1.50704,1.84236 3.44164,3.21841 5.34882,4.60576 0,0 13.81398,5.47854 13.81398,5.47854 v 0 c -1.85913,-1.38174 -3.88946,-2.5491 -5.47231,-4.2724 -2.42429,-2.58454 -4.13615,-5.70178 -4.32437,-9.30485 -0.41142,-5.0916 -0.12145,-10.21876 -0.11123,-15.32133 0.16381,-4.65411 0.37639,-9.35015 1.78176,-13.82878 1.66296,-5.03298 3.33698,-10.09244 6.43676,-14.46707 3.58568,-5.25567 7.6587,-10.40097 13.55347,-13.16744 0,0 -12.47611,-8.20883 -12.47611,-8.20883 z" />
    <path
       style="fill:#37abc8;fill-opacity:1;fill-rule:evenodd;stroke:#000000;stroke-width:0"
       id="path22846"
       d="m 465.98095,299.26872 c 0.0931,4.68069 -0.16234,9.35263 1.42151,13.85273 0.55183,1.56788 1.29466,3.06186 1.94198,4.5928 4.28608,8.57642 9.84575,16.48072 16.70073,23.20334 1.31769,1.29224 2.73452,2.47935 4.10178,3.71903 5.03131,4.26411 10.31728,8.23282 16.05433,11.50053 15.86094,9.03409 10.43115,6.48049 18.76517,10.23506 4.29611,1.95475 8.98309,2.30603 13.62979,2.48593 0,0 -11.95433,-8.7676 -11.95433,-8.7676 v 0 c -4.51643,-0.2318 -8.99402,-0.8176 -13.12003,-2.81111 -6.50454,-3.04815 -2.2795,-1.1835 6.17286,4.04016 1.22093,0.75455 -2.52689,-1.36487 -3.75105,-2.11416 -4.43747,-2.71608 -8.55964,-5.90971 -12.58923,-9.18837 -1.37955,-1.20325 -2.80986,-2.35067 -4.13866,-3.60975 -6.8891,-6.52768 -12.55629,-14.21863 -16.82053,-22.6911 -0.61701,-1.44376 -1.31445,-2.85575 -1.85103,-4.33129 -1.57315,-4.32607 -1.47838,-8.81311 -1.25761,-13.33662 0,0 -13.30568,-6.77958 -13.30568,-6.77958 z" />
    <path
       style="fill:#37abc8;fill-opacity:1;fill-rule:evenodd;stroke:#000000;stroke-width:0"
       id="path22848"
       d="m 489.67325,340.76115 c -4.83086,2.55664 -7.51111,7.47679 -9.51085,12.34806 -1.63668,4.86514 -1.83897,10.00642 -2.01399,15.08813 -0.0854,5.07198 1.53842,8.63407 4.26677,12.79245 4.18889,6.07074 8.73691,11.87934 13.23794,17.71931 2.40106,3.13066 5.00257,6.09635 7.65566,9.01312 0,0 13.56051,5.6822 13.56051,5.6822 v 0 c -2.71248,-2.90759 -5.38698,-5.85299 -7.85938,-8.97056 -4.54157,-5.73595 -8.97088,-11.56256 -13.14396,-17.57203 -2.82975,-4.02831 -4.38325,-6.90226 -4.57113,-11.92591 0.0687,-4.92571 0.21689,-9.91449 1.70885,-14.6538 1.79289,-4.57628 4.23833,-9.25809 9.06572,-11.17716 0,0 -12.39614,-8.34381 -12.39614,-8.34381 z" />
    <path
       style="fill:#37abc8;fill-opacity:1;fill-rule:evenodd;stroke:#000000;stroke-width:0"
       id="path22850"
       d="m 487.67635,382.31765 c -5.38306,1.02946 -8.83103,5.03409 -11.96372,9.22686 -4.43307,6.3462 -7.52379,13.49155 -10.29556,20.68347 -2.49083,7.00791 -4.90706,14.07647 -6.36471,21.37834 -1.16815,6.57981 -1.88443,13.23019 -0.91465,19.86776 0.53494,3.79879 2.09829,7.27642 3.84812,10.64702 1.59448,2.79203 3.79271,5.15713 6.01981,7.44939 1.95124,1.89255 3.74222,3.9357 5.49108,6.01345 0,0 13.64193,5.7971 13.64193,5.7971 v 0 c -1.72686,-2.09863 -3.44598,-4.19433 -5.35824,-6.13129 -2.31806,-2.10681 -4.44216,-4.4795 -6.23364,-7.04773 -1.82735,-3.22353 -3.48838,-6.6041 -4.1926,-10.2685 -1.23672,-6.48439 -0.63453,-13.00573 0.5007,-19.47978 1.4708,-7.21893 3.80269,-14.22095 6.25534,-21.16123 2.69814,-7.0676 5.70988,-14.10535 10.1089,-20.3041 3.22614,-4.05499 6.27664,-7.4582 11.69423,-8.04268 0,0 -12.23699,-8.62808 -12.23699,-8.62808 z" />
    <path
       style="fill:#37abc8;fill-opacity:1;fill-rule:evenodd;stroke:#000000;stroke-width:0"
       id="path22852"
       d="m 456.57004,443.95074 c -4.13997,-0.13752 -8.11365,0.0363 -12.0742,1.29709 -4.58498,1.51551 -8.45469,4.13788 -11.97583,7.37253 -3.21019,3.21632 -5.51602,7.16524 -7.59969,11.16657 -1.52776,3.07288 -2.58856,6.35622 -3.39186,9.6855 -0.0919,0.47252 -0.18391,0.94504 -0.27586,1.41756 0,0 13.15005,7.0031 13.15005,7.0031 v 0 c 0.0777,-0.45373 0.15532,-0.90747 0.23297,-1.36121 0.71813,-3.22707 1.7132,-6.41734 3.11274,-9.41577 1.99443,-3.86216 4.20451,-7.64318 7.33963,-10.70903 3.41752,-3.05487 7.11984,-5.53384 11.58465,-6.81847 3.94418,-0.98677 7.92673,-1.03346 11.9787,-0.86029 0,0 -12.0813,-8.77758 -12.0813,-8.77758 z" />
    <path
       style="fill:#37abc8;fill-opacity:1;fill-rule:evenodd;stroke:#000000;stroke-width:0"
       id="path22854"
       d="m 412.24889,325.95121 c 4.9617,9.04915 10.51564,17.72727 16.89951,25.83471 4.52293,5.32275 9.76518,9.92078 15.87256,13.3297 16.96335,9.46833 11.05319,7.10693 21.1588,10.70274 3.51732,1.16491 7.14492,1.84174 10.79108,2.42936 0,0 -11.69164,-8.79488 -11.69164,-8.79488 v 0 c -3.53242,-0.61608 -7.0517,-1.29982 -10.44349,-2.50444 -8.3665,-3.18903 -3.1306,-1.51543 3.54686,3.30482 1.38783,1.00182 -3.03989,-1.58535 -4.47541,-2.51753 -2.51986,-1.63632 -5.80806,-4.43952 -7.94531,-6.4912 -1.28958,-1.23794 -2.47842,-2.57671 -3.71763,-3.86506 -6.37394,-7.81121 -11.95184,-16.19874 -16.38868,-25.27215 0,0 -13.60665,-6.15607 -13.60665,-6.15607 z" />
    <path
       style="fill:#37abc8;fill-opacity:1;fill-rule:evenodd;stroke:#000000;stroke-width:0"
       id="path22856"
       d="m 437.89304,356.69188 c -4.58509,3.75495 -6.88874,9.08158 -9.16651,14.38601 -3.2623,9.49563 -3.66512,19.61876 -4.23073,29.55458 -0.34231,7.23066 -0.41053,14.47036 -0.40449,21.70788 0.10449,7.25285 2.69838,13.87517 5.51522,20.43184 2.27033,4.95933 4.65021,9.86663 7.16712,14.7053 0.6858,1.30844 0.39576,0.74052 0.87878,1.69931 0,0 13.88116,5.75073 13.88116,5.75073 v 0 c -0.94688,-0.44962 -0.44305,-0.0885 -1.24368,-1.38248 -2.67069,-4.81808 -5.09188,-9.76733 -7.49818,-14.72173 -2.79402,-6.3611 -5.42953,-12.78322 -5.65193,-19.83891 -0.0335,-7.25608 -0.12329,-14.51437 0.12288,-21.76812 0.39932,-9.76728 0.83586,-19.71731 4.13309,-29.01811 2.2149,-5.09534 4.52901,-10.22591 9.17945,-13.57561 0,0 -12.68218,-7.93069 -12.68218,-7.93069 z" />
    <path
       style="fill:#37abc8;fill-opacity:1;fill-rule:evenodd;stroke:#000000;stroke-width:0"
       id="path22858"
       d="m 373.23019,340.26399 c 0.49485,6.67857 3.04931,12.85397 6.00869,18.77384 3.40085,6.75984 8.5278,12.23926 13.90896,17.45093 2.40162,2.28078 5.00208,4.3386 7.88442,5.98039 9.52779,5.42707 12.33287,7.83485 20.58403,10.37725 4.08074,1.32439 7.96732,3.19945 11.75062,5.20875 0,0 -11.55965,-9.27053 -11.55965,-9.27053 v 0 c -3.82209,-1.91426 -7.70899,-3.7191 -11.81404,-4.95183 -6.4885,-2.20433 -10.49509,-5.32135 4.70041,3.90225 0.8755,0.53143 -1.80723,-0.96785 -2.67334,-1.51445 -2.55457,-1.61219 -3.0975,-2.21778 -5.46579,-4.21524 -5.38508,-5.06377 -10.53449,-10.39896 -14.0512,-16.97965 -2.94242,-5.64349 -5.62799,-11.53523 -5.98571,-17.99144 0,0 -13.2874,-6.77027 -13.2874,-6.77027 z" />
    <path
       style="fill:#37abc8;fill-opacity:1;fill-rule:evenodd;stroke:#000000;stroke-width:0"
       id="path22860"
       d="m 394.49833,374.4417 c -3.97294,2.78562 -8.41311,5.2482 -11.45368,9.13511 -0.62598,0.80021 -1.11972,1.69558 -1.67958,2.54337 -3.0178,5.13017 -3.22523,10.94329 -2.1139,16.63705 1.88418,5.72037 5.4108,10.70327 8.56602,15.77868 3.43784,5.03896 7.18251,9.85003 11.67622,13.98334 6.04842,4.80009 12.43154,9.1665 19.03795,13.15783 6.0612,3.47515 11.86886,7.35651 17.80458,11.03324 2.39074,1.46624 4.76135,2.9613 7.07303,4.54941 0,0 13.87623,5.44134 13.87623,5.44134 v 0 c -2.39664,-1.60283 -4.78962,-3.20518 -7.25626,-4.7008 -6.05497,-3.59412 -11.82961,-7.64546 -17.96608,-11.11102 -6.62055,-3.85069 -12.90761,-8.23477 -19.01664,-12.8515 -4.61087,-3.9344 -8.3175,-8.68209 -11.84115,-13.59867 -3.12053,-4.94652 -6.46676,-9.85131 -8.68785,-15.2798 -1.3106,-5.3389 -1.3347,-10.72675 1.50196,-15.63103 0.51647,-0.78088 0.96875,-1.60824 1.5494,-2.34265 3.00218,-3.79723 7.43892,-6.20462 11.47461,-8.71156 0,0 -12.54486,-8.03234 -12.54486,-8.03234 z" />
    <path
       style="fill:#37abc8;fill-opacity:1;fill-rule:evenodd;stroke:#000000;stroke-width:0"
       id="path22862"
       d="m 394.06146,420.11477 c -4.42735,-1.98219 -8.9194,-3.70172 -13.62461,-4.90003 -1.98725,-0.25293 -4.01544,-0.92704 -6.03923,-0.89668 -1.85239,0.0278 -3.67246,0.76528 -5.41232,1.31296 -3.59427,1.713 -6.58721,4.36599 -8.85141,7.6124 -2.11028,2.43622 -2.7275,5.3819 -3.3261,8.44212 -0.57083,2.85421 -1.17811,5.70667 -0.78332,8.61473 0.42202,2.07132 1.2769,4.01453 2.32137,5.84017 0,0 13.68462,5.98192 13.68462,5.98192 v 0 c -1.232,-1.55702 -2.0097,-3.41246 -2.57979,-5.30741 -0.73243,-2.69584 -0.0173,-5.4206 0.46949,-8.11484 0.59813,-2.85585 1.03011,-5.6224 3.0059,-7.92869 2.07099,-3.00031 4.89764,-5.41799 8.31412,-6.77087 1.16071,-0.32994 2.19278,-0.67848 3.40197,-0.80214 2.52527,-0.25823 5.05358,0.53088 7.50178,0.99638 4.71336,1.31033 9.20913,3.16648 13.65592,5.19701 0,0 -11.73839,-9.27703 -11.73839,-9.27703 z" />
  </g>
</svg>
